<?xml version="1.0" encoding="utf-8"?>
<!-- Generator: Adobe Illustrator 13.0.2, SVG Export Plug-In . SVG Version: 6.00 Build 14948)  -->
<svg version="1.2" baseProfile="tiny" id="Layer_1" xmlns="http://www.w3.org/2000/svg" xmlns:xlink="http://www.w3.org/1999/xlink"
	 x="0px" y="0px" width="252.623px" height="243.767px" viewBox="0 0 252.623 243.767" xml:space="preserve">
<g>
	<g>
		<g>
			<path fill="#77ABD3" stroke="#010101" stroke-width="6.1991" d="M156.837,151.221c6.414,3.701,19.74-7.691,30-25.482
				c10.276-17.791,13.589-35.192,7.157-38.897L47.472,32.763c-9.163-2.835-18.518,13.36-11.483,19.898L156.837,151.221z"/>
			<path fill="#F2F2F2" stroke="#231F20" stroke-width="5.4654" d="M186.837,125.738c-10.26,17.791-23.763,29.184-30.178,25.463
				c-6.415-3.688-3.296-21.087,6.966-38.859c10.257-17.774,23.779-29.184,30.193-25.482
				C200.232,90.546,197.113,107.947,186.837,125.738z"/>
		</g>
		<g>
			<path fill="#77ABD3" stroke="#010101" stroke-width="6.1991" d="M8.437,194.808c0,7.408,16.529,13.256,37.069,13.239
				c20.535,0.017,37.263-5.812,37.263-13.239L56.33,40.878c-2.126-9.357-20.82-9.357-22.963,0L8.437,194.808z"/>
			<path fill="#F2F2F2" stroke="#231F20" stroke-width="5.4654" d="M45.506,208.047c-20.54,0.017-37.161-5.975-37.142-13.398
				c-0.02-7.388,16.602-13.394,37.122-13.394s37.175,6.006,37.175,13.413C82.681,202.055,66.041,208.063,45.506,208.047z"/>
		</g>
		<g>
			<path fill="#77ABD3" stroke="#010101" stroke-width="6.1991" d="M87.164,45.13c0,23.232-18.801,42.033-42.011,42.033
				C21.92,87.163,3.1,68.362,3.1,45.13C3.1,21.92,21.92,3.1,45.152,3.1C68.363,3.1,87.164,21.92,87.164,45.13z"/>
			<path fill="none" stroke="#F2F2F2" stroke-width="3.7195" stroke-linecap="round" stroke-linejoin="round" d="M15.169,46.707
				c0-17.418,14.122-31.541,31.541-31.541"/>
			<path fill="none" stroke="#1E76BB" stroke-width="3.7195" stroke-linecap="round" stroke-linejoin="round" d="M75.114,43.571
				c0,17.435-14.105,31.541-31.523,31.541"/>
			<path fill="#F2F2F2" stroke="#010101" stroke-width="4.9593" d="M55.64,45.13c0,5.814-4.714,10.509-10.487,10.509
				c-5.814,0-10.529-4.695-10.529-10.509c0-5.792,4.714-10.507,10.529-10.507C50.925,34.623,55.64,39.338,55.64,45.13z"/>
		</g>
		<g>
			<path fill="#77ABD3" stroke="#010101" stroke-width="6.1991" d="M87.164,198.636c0,23.23-18.801,42.031-42.011,42.031
				c-23.232,0-42.053-18.801-42.053-42.031c0-23.212,18.82-42.03,42.053-42.03C68.363,156.605,87.164,175.424,87.164,198.636z"/>
			<path fill="none" stroke="#F2F2F2" stroke-width="3.7195" stroke-linecap="round" stroke-linejoin="round" d="M15.169,200.213
				c0-17.418,14.122-31.54,31.541-31.54"/>
			<path fill="none" stroke="#1E76BB" stroke-width="3.7195" stroke-linecap="round" stroke-linejoin="round" d="M75.114,197.076
				c0,17.436-14.105,31.541-31.523,31.541"/>
			<path fill="#F2F2F2" stroke="#010101" stroke-width="4.9593" d="M55.64,198.636c0,5.812-4.714,10.508-10.487,10.508
				c-5.814,0-10.529-4.696-10.529-10.508c0-5.794,4.714-10.507,10.529-10.507C50.925,188.129,55.64,192.842,55.64,198.636z"/>
		</g>
		<g>
			<path fill="#77ABD3" stroke="#010101" stroke-width="6.1991" d="M224.213,121.268c0,23.232-18.801,42.033-42.015,42.033
				c-23.229,0-42.049-18.801-42.049-42.033c0-23.21,18.82-42.03,42.049-42.03C205.412,79.238,224.213,98.058,224.213,121.268z"/>
			<path fill="none" stroke="#F2F2F2" stroke-width="3.7195" stroke-linecap="round" stroke-linejoin="round" d="M152.218,122.845
				c0-17.418,14.123-31.541,31.54-31.541"/>
			<path fill="none" stroke="#1E76BB" stroke-width="3.7195" stroke-linecap="round" stroke-linejoin="round" d="M212.164,119.709
				c0,17.436-14.105,31.54-31.524,31.54"/>
			<path fill="#F2F2F2" stroke="#010101" stroke-width="4.9593" d="M192.688,121.268c0,5.814-4.713,10.51-10.49,10.51
				c-5.812,0-10.524-4.696-10.524-10.51c0-5.792,4.713-10.507,10.524-10.507C187.976,110.761,192.688,115.476,192.688,121.268z"/>
		</g>
	</g>
	<path fill="none" stroke="#CB2129" stroke-width="8.6788" d="M237.086,121.268c0,30.344-24.562,54.906-54.882,54.906
		c-30.343,0-54.93-24.562-54.93-54.906c0-30.317,24.587-54.906,54.93-54.906C212.524,66.362,237.086,90.951,237.086,121.268z"/>
	<path fill="#010101" stroke="#010101" stroke-width="2.4797" stroke-linecap="round" stroke-linejoin="round" d="M132.942,211.844
		c24.075,15.112,54.313,19.092,82.319,5.309l7.173-3.942l7.176,13.059l21.465-34.454l-40.585-0.344l7.166,13.043l-7.174,3.944
		c-26.835,12.239-51.75,7.716-72.508-4.64L132.942,211.844z"/>
	<path fill="#CB2129" stroke="#CB2129" stroke-width="2.4797" stroke-linecap="round" stroke-linejoin="round" d="M133.248,205.763
		c24.072,15.112,54.314,19.09,82.317,5.307l7.176-3.942l7.178,13.061l21.464-34.45l-40.585-0.343l7.168,13.038l-7.174,3.945
		c-26.84,12.24-51.753,7.717-72.511-4.643L133.248,205.763z"/>
</g>
</svg>
