<?xml version="1.0" encoding="utf-8"?>
<!-- Generator: Adobe Illustrator 13.0.2, SVG Export Plug-In . SVG Version: 6.00 Build 14948)  -->
<svg version="1.2" baseProfile="tiny" id="Layer_1" xmlns="http://www.w3.org/2000/svg" xmlns:xlink="http://www.w3.org/1999/xlink"
	 x="0px" y="0px" width="248.996px" height="222.518px" viewBox="0 0 248.996 222.518" xml:space="preserve">
<g>
	<g>
		<path fill="#010101" stroke="#010101" stroke-width="2.45" stroke-linecap="round" stroke-linejoin="round" d="M4.9,59.255
			c0,0,60.463,0,110.633,0c66.648,0,69.059,80.091,15.375,80.091c-29.505,0-27.294-31.434-4.597-23.436
			c20.728,5.831,23.706-26.309-2.86-26.309c-55.86,0-57.176,83.631,14.755,83.631c119.702,0,121.022-164.584-26.745-164.584H4.84
			L4.9,59.255z"/>
		<path fill="#010101" stroke="#010101" stroke-width="2.45" stroke-linecap="round" stroke-linejoin="round" d="M247.708,170.689
			c0,0-60.462,0-110.633,0c-66.647,0-69.062-80.094-15.375-80.094c29.505,0,25.768,32.199,3.072,24.202
			c-20.724-5.831-22.945,25.544,3.623,25.544c55.861,0,57.938-83.632-13.992-83.632c-119.701,0-121.026,164.584,26.747,164.584
			h106.62L247.708,170.689z"/>
	</g>
	<g>
		<path fill="#1E76BB" stroke="#1E76BB" stroke-width="2.45" stroke-linecap="round" stroke-linejoin="round" d="M1.283,51.832
			c0,0,60.465,0,110.633,0c66.647,0,69.06,80.093,15.375,80.093c-29.503,0-27.292-31.434-4.597-23.437
			c21.804,6.053,23.705-26.309-2.859-26.309c-55.862,0-57.178,83.63,14.752,83.63c119.706,0,121.023-164.584-26.744-164.584H1.225
			L1.283,51.832z"/>
		<path fill="#E92929" stroke="#E92929" stroke-width="2.45" stroke-linecap="round" stroke-linejoin="round" d="M244.091,163.266
			c0,0-60.461,0-110.631,0c-66.65,0-69.062-80.094-15.377-80.094c29.505,0,25.251,32.459,2.555,24.462
			c-20.725-5.832-22.169,25.282,4.398,25.282c55.861,0,57.683-83.629-14.25-83.629c-119.701,0-121.026,164.583,26.748,164.583
			h106.619L244.091,163.266z"/>
	</g>
</g>
</svg>
