<?xml version="1.0" encoding="utf-8"?>
<!-- Generator: Adobe Illustrator 13.0.2, SVG Export Plug-In . SVG Version: 6.00 Build 14948)  -->
<svg version="1.2" baseProfile="tiny" id="Layer_1" xmlns="http://www.w3.org/2000/svg" xmlns:xlink="http://www.w3.org/1999/xlink"
	 x="0px" y="0px" width="245.229px" height="245.21px" viewBox="0 0 245.229 245.21" xml:space="preserve">
<g>
	<path fill="#F2F2F2" stroke="#010101" stroke-width="6.25" stroke-linecap="round" stroke-linejoin="round" d="M242.104,188.88
		c0,50.407-2.798,53.205-53.208,53.205H56.333c-50.41,0-53.208-2.798-53.208-53.205V56.333c0-50.41,2.798-53.208,53.208-53.208
		h132.563c50.41,0,53.208,2.798,53.208,53.208V188.88z"/>
	<g>
		<g>
			<path fill="#010101" d="M99.514,155.947c0.832,1.081,0.824,2.285-0.018,3.608c-0.844,1.323-3.017,3.003-6.52,5.049
				c-3.548,2.119-6.085,3.213-7.611,3.281c-1.528,0.07-2.563-0.508-3.107-1.733l-14.797-32.151l-13.907,32.555
				c-0.421,1.301-1.435,1.916-3.036,1.84c-1.601-0.072-4.197-1.115-7.791-3.129c-3.596-2.012-5.846-3.68-6.745-5.008
				c-0.9-1.32-0.904-2.508-0.013-3.547l20.472-28.877l-35.021,4.262c-1.332,0.179-2.387-0.41-3.164-1.771
				c-0.778-1.36-1.195-4.104-1.24-8.235c-0.093-4.058,0.226-6.78,0.952-8.167c0.724-1.389,1.769-2.017,3.125-1.87l35.272,3.271
				l-21.296-28.24c-0.789-1.16-0.782-2.412,0.024-3.757c0.805-1.345,2.958-3.04,6.462-5.083c3.503-2.043,6.039-3.083,7.605-3.132
				c1.565-0.044,2.62,0.544,3.164,1.77l14.747,31.96l13.841-32.427c0.465-1.382,1.498-2.036,3.101-1.963
				c1.597,0.076,4.196,1.118,7.79,3.13c3.597,2.014,5.843,3.682,6.743,5.007c0.9,1.323,0.885,2.549-0.05,3.665L78.09,115.012
				l35.072-4.077c1.333-0.176,2.366,0.405,3.108,1.741c0.737,1.335,1.13,4.072,1.179,8.203c0.137,3.978-0.142,6.67-0.828,8.083
				c-0.688,1.409-1.733,2.083-3.13,2.018l-35.206-3.387L99.514,155.947z"/>
		</g>
		
			<line fill="#231F20" stroke="#000000" stroke-width="16.4888" stroke-linecap="round" x1="25.17" y1="120.432" x2="108.213" y2="120.432"/>
	</g>
	<g>
		<g>
			<path fill="#010101" d="M168.291,127.835l-35.021,4.262c-1.331,0.179-2.386-0.41-3.164-1.771c-0.779-1.36-1.194-4.104-1.24-8.235
				c-0.094-4.058,0.227-6.78,0.951-8.167c0.726-1.389,1.771-2.017,3.123-1.87l35.273,3.271 M189.939,115.012l35.07-4.077
				c1.333-0.176,2.368,0.405,3.107,1.741c0.74,1.335,1.131,4.072,1.18,8.203c0.137,3.978-0.142,6.67-0.825,8.083
				c-0.69,1.409-1.733,2.083-3.13,2.018l-35.207-3.387"/>
		</g>
		
			<line fill="#231F20" stroke="#000000" stroke-width="16.4888" stroke-linecap="round" x1="137.02" y1="120.432" x2="220.063" y2="120.432"/>
		<circle fill="#010101" cx="176.586" cy="88.906" r="13.979"/>
		<circle fill="#010101" cx="176.586" cy="152.038" r="13.979"/>
	</g>
</g>
</svg>
