<?xml version="1.0" encoding="utf-8"?>
<!-- Generator: Adobe Illustrator 13.0.2, SVG Export Plug-In . SVG Version: 6.00 Build 14948)  -->
<svg version="1.2" baseProfile="tiny" id="Layer_1" xmlns="http://www.w3.org/2000/svg" xmlns:xlink="http://www.w3.org/1999/xlink"
	 x="0px" y="0px" width="245.098px" height="245.209px" viewBox="0 0 245.098 245.209" xml:space="preserve">
<g>
	<path fill="#FFFFFF" stroke="#000000" stroke-width="6.25" stroke-linecap="round" stroke-linejoin="round" d="M122.388,242.084
		H56.333c-50.41,0-53.208-2.798-53.208-53.203V56.333c0-50.41,2.798-53.208,53.208-53.208h66.055"/>
	<path stroke="#000000" stroke-width="6.25" stroke-linecap="round" stroke-linejoin="round" d="M122.388,3.125h66.377
		c50.41,0,53.208,2.798,53.208,53.208v132.548c0,50.405-2.798,53.203-53.208,53.203h-66.377"/>
	<path fill="none" stroke="#000000" stroke-width="6.25" stroke-linecap="round" stroke-linejoin="round" d="M241.973,188.881
		c0,50.405-2.798,53.203-53.208,53.203H56.333c-50.41,0-53.208-2.798-53.208-53.203V56.333c0-50.41,2.798-53.208,53.208-53.208
		h132.432c50.41,0,53.208,2.798,53.208,53.208V188.881z"/>
	<path stroke="#000000" stroke-width="2.5229" stroke-linecap="round" stroke-linejoin="round" d="M121.252,224.779h-45.51
		c-5.537,0-6.487-6.951,0.22-6.951c7.163,0,36.064-0.355,36.064-29.953v-38.02c0-18.574-10.664-11.57-10.664-26.197
		c0-14.641-46.509-2.133-46.509-70.358c0-22.847-16.14-33.198-3.401-33.198h69.67L121.252,224.779z"/>
	<path fill="#FFFFFF" stroke="#FFFFFF" stroke-width="2.5229" stroke-linecap="round" stroke-linejoin="round" d="M124.092,224.779
		h45.51c5.537,0,6.487-6.951-0.219-6.951c-7.164,0-36.064-0.355-36.064-29.953v-38.02c0-18.574,10.661-11.57,10.661-26.197
		c0-14.641,46.511-2.133,46.511-70.358c0-22.847,16.141-33.198,3.401-33.198h-69.673L124.092,224.779z"/>
</g>
</svg>
